<?xml version="1.0" encoding="UTF-8" standalone="no"?>
<svg
   width="48"
   height="48"
   viewBox="0 0 256 256"
   fill="none"
   version="1.1"
   id="svg6"
   sodipodi:docname="py_firmata.svg"
   inkscape:version="1.4 (86a8ad7, 2024-10-11)"
   xmlns:inkscape="http://www.inkscape.org/namespaces/inkscape"
   xmlns:sodipodi="http://sodipodi.sourceforge.net/DTD/sodipodi-0.dtd"
   xmlns="http://www.w3.org/2000/svg"
   xmlns:svg="http://www.w3.org/2000/svg">
  <defs
     id="defs6">
    <defs
       id="defs5">
      <linearGradient
         id="paint0_linear_2_47"
         x1="47.220001"
         x2="146.33299"
         y1="46.896"
         y2="145.02"
         gradientUnits="userSpaceOnUse">
        <stop
           stop-color="#387EB8"
           id="stop2" />
        <stop
           offset="1"
           stop-color="#366994"
           id="stop3" />
      </linearGradient>
      <linearGradient
         id="paint1_linear_2_47"
         x1="108.056"
         x2="214.492"
         y1="109.905"
         y2="210.522"
         gradientUnits="userSpaceOnUse">
        <stop
           stop-color="#FFE052"
           id="stop4" />
        <stop
           offset="1"
           stop-color="#FFC331"
           id="stop5" />
      </linearGradient>
    </defs>
  </defs>
  <sodipodi:namedview
     id="namedview6"
     pagecolor="#ffffff"
     bordercolor="#111111"
     borderopacity="1"
     inkscape:showpageshadow="0"
     inkscape:pageopacity="0"
     inkscape:pagecheckerboard="1"
     inkscape:deskcolor="#d1d1d1"
     inkscape:zoom="8.40625"
     inkscape:cx="6.8996282"
     inkscape:cy="15.048327"
     inkscape:window-width="1920"
     inkscape:window-height="1009"
     inkscape:window-x="-8"
     inkscape:window-y="-8"
     inkscape:window-maximized="1"
     inkscape:current-layer="svg6" />
  <rect
     width="256"
     height="256"
     fill="#242938"
     rx="60"
     id="rect1"
     x="0"
     y="0" />
  <g
     id="g6"
     transform="matrix(0.8596903,0,0,0.8596903,19.789886,-0.0549349)"
     style="stroke-width:1.16321">
    <path
       fill="url(#paint0_linear_2_47)"
       d="M 127.279,29 C 76.5066,29 79.6772,51.018 79.6772,51.018 l 0.0566,22.8104 h 48.4512 v 6.8488 H 60.4893 c 0,0 -32.4893,-3.6846 -32.4893,47.5448 0,51.23 28.3573,49.414 28.3573,49.414 h 16.9239 v -23.773 c 0,0 -0.9122,-28.357 27.9048,-28.357 h 48.054 c 0,0 26.999,0.436 26.999,-26.0937 V 55.5461 c 0,0 4.099,-26.5461 -48.96,-26.5461 z m -26.716,15.339 c 4.821,0 8.717,3.8961 8.717,8.7166 0,4.8205 -3.896,8.7167 -8.717,8.7167 -4.8204,0 -8.7165,-3.8962 -8.7165,-8.7167 0,-4.8205 3.8961,-8.7166 8.7165,-8.7166 z"
       id="path1"
       style="fill:url(#paint0_linear_2_47);stroke-width:1.16321" />
    <path
       fill="url(#paint1_linear_2_47)"
       d="m 128.721,227.958 c 50.772,0 47.602,-22.017 47.602,-22.017 l -0.057,-22.811 h -48.451 v -6.849 h 67.696 c 0,0 32.489,3.685 32.489,-47.545 0,-51.2298 -28.357,-49.413 -28.357,-49.413 h -16.924 v 23.773 c 0,0 0.912,28.357 -27.905,28.357 H 106.76 c 0,0 -26.9993,-0.437 -26.9993,26.093 v 43.866 c 0,0 -4.0992,26.546 48.9603,26.546 z m 26.716,-15.339 c -4.821,0 -8.717,-3.896 -8.717,-8.716 0,-4.821 3.896,-8.717 8.717,-8.717 4.82,0 8.717,3.896 8.717,8.717 0,4.82 -3.897,8.716 -8.717,8.716 z"
       id="path2"
       style="fill:url(#paint1_linear_2_47);stroke-width:1.16321" />
  </g>
  <text
     xml:space="preserve"
     style="font-weight:600;font-size:56.8889px;line-height:56.8889px;font-family:Saira;-inkscape-font-specification:'Saira Semi-Bold';text-align:center;letter-spacing:3.46667px;writing-mode:lr-tb;direction:ltr;text-anchor:middle;fill:#ffffff;fill-opacity:1;stroke-width:2.01575;stroke-miterlimit:2"
     x="128.47583"
     y="221.30359"
     id="text6"><tspan
       sodipodi:role="line"
       id="tspan6"
       style="font-style:italic;font-variant:normal;font-weight:normal;font-stretch:condensed;font-size:56.8889px;line-height:56.8889px;font-family:Vivaldi;-inkscape-font-specification:'Vivaldi Italic Condensed';letter-spacing:3.46667px;fill:#ffffff;fill-opacity:1;stroke-width:2.01575"
       x="130.20917"
       y="221.30359">firmata</tspan></text>
</svg>
